<?xml version="1.0" encoding="utf-8"?>
<!-- Generator: Adobe Illustrator 23.0.6, SVG Export Plug-In . SVG Version: 6.00 Build 0)  -->
<svg version="1.1" id="Layer_1" xmlns="http://www.w3.org/2000/svg" xmlns:xlink="http://www.w3.org/1999/xlink" x="0px" y="0px"
	 viewBox="0 0 800 800" style="enable-background:new 0 0 800 800;" xml:space="preserve">
<style type="text/css">
	.st0{fill:#35FF11;}
</style>
<path class="st0" d="M720.8,136L580,238.3c-22.2,16.3-27.1,47.4-11,69.7c16.2,22.2,47.4,27.2,69.7,11l140.7-102.3
	c22.3-16.3,27.1-47.4,11.1-69.8c-16-22.3-47-27.3-69.2-11.4C721.1,135.7,720.9,135.9,720.8,136L720.8,136z M399.2,96.6
	c-27.6,0-49.9,22.3-49.9,49.9v84c0,27.6,22.4,49.9,49.9,49.9c27.6,0,49.9-22.4,49.9-49.9v-84C449.1,118.9,426.8,96.6,399.2,96.6
	L399.2,96.6z M9.6,147c-16.3,22.3-11.3,53.4,11,69.8l140.8,102.3c22.3,16.3,53.4,11.3,69.7-11c16.3-22.3,11.3-53.4-11-69.7L79.3,136
	C57,119.8,25.8,124.7,9.6,147z M132.8,406.7C206,341,300.8,304.7,399.2,304.8c102.3,0,195.7,38.6,266.4,101.8L132.8,406.7z
	 M617.9,461.1c-44.9,0-74.5,14.8-93.3,33.1c-19.8,19.6-34.1,50.2-34.1,88.3c0,43.4,18.8,71.5,33.6,86.3
	c28.1,28.1,64.2,34.6,94.3,34.6c49.4,0,76-15.3,92.8-31.6c13.3-12.9,22.8-29.1,27.6-46.9h-78c-3.3,6.3-8.2,11.6-14.3,15.3
	c-10.3,5.5-24.5,6-26.6,6c-18.3,0-28.6-6.3-33.6-11.3c-9.8-9.5-14.3-25.8-14.3-38.1h169.8V588c0-25.3-4-65.2-36.1-95.8
	C678.6,466.6,644.5,461.1,617.9,461.1L617.9,461.1z M619.9,513c8,0,22.8,1.5,33.6,12.3c6.3,6.3,11.3,15.8,13.3,24.6h-92.3
	c1.5-10.3,6.8-18.6,12.3-24.6C595.4,516.5,606.2,513,619.9,513L619.9,513z M58.3,467.9h81.5v27.6c19.3-23.3,45.9-31.6,68.2-31.6
	c16.3,0,31.6,3.5,43.9,10.3c16.8,8.8,26.1,21.3,31.6,32.6c9.3-16.3,20.9-26.1,31.1-31.6c16.3-9.3,32.1-11.3,47.4-11.3
	c16.8,0,44.4,2.5,63.2,20.8c20.3,19.8,21.3,46.9,21.3,62.7v148.5H365V583.2c0-24.1-2.5-40.3-11.8-48.9c-4.5-4-10.8-7.5-21.3-7.5
	c-9-0.3-17.6,3-24.1,9.3C294,549.4,293,568.2,293,579.5v116.9h-81.5V583.7c0-21.8-1.5-39.3-10.8-48.9c-7-7.5-16.3-9.3-24.6-9.3
	c-8.8,0-15.8,1.5-22.3,8.3c-14.3,13.8-14.3,35.6-14.3,49.9v112.6H58V467.9L58.3,467.9z"/>
</svg>
