<?xml version="1.0" encoding="utf-8"?>
<!-- Generator: Adobe Illustrator 23.0.6, SVG Export Plug-In . SVG Version: 6.00 Build 0)  -->
<svg version="1.1" id="Layer_1" xmlns="http://www.w3.org/2000/svg" xmlns:xlink="http://www.w3.org/1999/xlink" x="0px" y="0px"
	 viewBox="0 0 800 800" style="enable-background:new 0 0 800 800;" xml:space="preserve">
<style type="text/css">
	.st0{fill:#FFFFFF;}
</style>
<path class="st0" d="M731.6,635.4c-5.1,0-10.3-1.5-14.8-4.5c-12.2-8.3-15.5-25-7.4-37c24.6-36.4,37.5-79.3,37.5-123.9
	c0-44.5-12.9-87.5-37.5-124c-8.3-12.4-4.8-28.9,7.2-37c12.5-8.2,29-4.8,37,7.1c30.5,45.6,46.5,99,46.5,154c0,55-16,108.5-46.5,153.9
	c-4.5,8.1-13,12-21.5,12L731.6,635.4z M655.3,592.3c-5.1,0-10.3-1.6-14.8-4.7c-12.2-7.9-15.4-24.5-7.2-36.5
	c16.3-24.1,24.9-51.6,24.9-81c0-28.5-8.6-56.5-24.9-81c-8.2-12.1-5.1-28.5,7.2-36.6c12.4-7.9,28.5-4.9,36.8,7.6
	c22.3,32.9,34.1,71.5,34.1,110.4c0,40.1-11.9,78-34.1,110.6c-4.8,7.9-13.5,12-22,12V592.3z M531,353.8
	c-10.4-106.5-100.5-190-210-190c-90.6,0-171,58.3-199.7,142.8C53,316.6,0,375.6,0,446.6c0,78.1,63.7,141.8,142.1,141.8h363.5
	c65.5,0,118.9-53.1,118.9-118.5c0-56.9-40-104.3-93.5-116L531,353.8z M505.6,535.4H142.1c-48.8,0-88.9-39.7-88.9-88.7
	c0-48.8,39.7-88.5,88.9-88.5c23.7,0,46.1,9.5,62.9,26c10,10.4,27.1,10.4,37.5,0c10-10,10-27.1,0-37.5c-18.5-18.1-41-31.1-65.5-37.1
	c25-55.5,81-92.4,143.5-92.4c87,0,158.1,71,158.1,157.9c0,17.1-2.6,33.6-8.1,49.5c-4.4,14.1,3,29,17.1,34.1c2.5,0.9,5.5,1.4,7.9,1.4
	c11.1,0,21.5-7,25-18c3.5-10.6,6-21,7.6-32c24.5,9.5,41.9,33.5,41.9,61.1c0,36.4-29.4,65.9-65.5,65.9L505.6,535.4z"/>
</svg>
